<?xml version="1.0" encoding="UTF-8"?>
<svg version="1.1" xmlns="http://www.w3.org/2000/svg" width="100" height="100">
<path d="M0 0 C2.4375 2.1875 2.4375 2.1875 4 5 C4 7.625 4 7.625 3 10 C0.68542384 12.16027108 -0.97442875 12.99147625 -4 14 C-4 14.66 -4 15.32 -4 16 C-1.03 17.65 1.94 19.3 5 21 C4.505 23.475 4.505 23.475 4 26 C-0.05281712 24.77472971 -3.44360764 23.30119506 -7 21 C-11.37358071 27.31707254 -15.22576126 33.80446684 -18.875 40.5625 C-19.37257813 41.47580078 -19.87015625 42.38910156 -20.3828125 43.33007812 C-21.59231313 45.55137256 -22.7979636 47.77466032 -24 50 C-21.2656934 52.7343066 -19.23006445 52.95340665 -15.421875 53.09765625 C-14.54015625 53.08605469 -13.6584375 53.07445312 -12.75 53.0625 C-11.85796875 53.05347656 -10.9659375 53.04445312 -10.046875 53.03515625 C-9.03367187 53.01775391 -9.03367187 53.01775391 -8 53 C-7.75121094 52.36578125 -7.50242188 51.7315625 -7.24609375 51.078125 C-6 49 -6 49 -4.16015625 48.171875 C-3.46792969 48.03265625 -2.77570313 47.8934375 -2.0625 47.75 C-1.37285156 47.60046875 -0.68320313 47.4509375 0.02734375 47.296875 C2 47 2 47 5 47 C5.63019694 55.03501094 5.63019694 55.03501094 3 59.0625 C2.34 59.701875 1.68 60.34125 1 61 C-1.16874252 60.49396008 -2.99967627 60.00016187 -5 59 C-6.81640663 59.11662322 -8.62915512 59.29306326 -10.4375 59.5 C-15.63907042 59.99955058 -20.39774695 59.78321706 -25.57421875 59.19140625 C-28.51523127 58.95934568 -31.13894505 59.30406771 -34 60 C-34.53625 58.845 -35.0725 57.69 -35.625 56.5 C-37.15819096 53.40643384 -38.85671167 50.7660896 -41 48.0625 C-44.16281713 44.02469031 -46.12953963 39.75316987 -48 35 C-48.99 35 -49.98 35 -51 35 C-51.45826062 29.2717423 -50.55825861 26.5001506 -47 22 C-46.34 21.34 -45.68 20.68 -45 20 C-44.01 20 -43.02 20 -42 20 C-37.92122538 28.03501094 -37.92122538 28.03501094 -38.25 32.0625 C-38.62125 33.0215625 -38.62125 33.0215625 -39 34 C-39.99 34 -40.98 34 -42 34 C-41.06692579 35.44037669 -40.12834923 36.87718985 -39.1875 38.3125 C-38.40439453 39.51326172 -38.40439453 39.51326172 -37.60546875 40.73828125 C-35.07183946 44.30755463 -33.39244495 46.2426819 -29 47 C-28.73268066 46.28739014 -28.46536133 45.57478027 -28.18994141 44.84057617 C-26.96891885 41.92580445 -25.54123537 39.28638889 -23.9609375 36.55078125 C-23.38085938 35.53822266 -22.80078125 34.52566406 -22.203125 33.48242188 C-20.97735349 31.35696551 -19.75078181 29.23197042 -18.5234375 27.10742188 C-17.9459375 26.09873047 -17.3684375 25.09003906 -16.7734375 24.05078125 C-15.97558838 22.66886597 -15.97558838 22.66886597 -15.16162109 21.2590332 C-13.84756804 19.12692776 -13.84756804 19.12692776 -14 17 C-17.3 15.35 -20.6 13.7 -24 12 C-23.34 10.35 -22.68 8.7 -22 7 C-17.76570244 8.31061591 -13.92592596 9.94356259 -10 12 C-10.0825 10.7625 -10.165 9.525 -10.25 8.25 C-10.23900334 5.1489408 -10.12081946 4.18587609 -8.375 1.5 C-5.25673949 -0.46942769 -3.62279473 -0.67927401 0 0 Z M-5 4 C-5 5.32 -5 6.64 -5 8 C-3.68 8 -2.36 8 -1 8 C-1 6.68 -1 5.36 -1 4 C-2.32 4 -3.64 4 -5 4 Z " fill="#38834E" transform="translate(67,20)"/>
<path d="M0 0 C2.4375 2.1875 2.4375 2.1875 4 5 C4 7.625 4 7.625 3 10 C0.68542384 12.16027108 -0.97442875 12.99147625 -4 14 C-4 14.66 -4 15.32 -4 16 C-1.03 17.65 1.94 19.3 5 21 C4.67 22.65 4.34 24.3 4 26 C-0.05281712 24.77472971 -3.44360764 23.30119506 -7 21 C-7.5259375 21.99 -7.5259375 21.99 -8.0625 23 C-10 25 -10 25 -13.6875 25.25 C-14.780625 25.1675 -15.87375 25.085 -17 25 C-16.505 24.05125 -16.01 23.1025 -15.5 22.125 C-13.85575631 19.27721834 -13.85575631 19.27721834 -14 17 C-17.3 15.35 -20.6 13.7 -24 12 C-23.34 10.35 -22.68 8.7 -22 7 C-17.76570244 8.31061591 -13.92592596 9.94356259 -10 12 C-10.12375 10.14375 -10.12375 10.14375 -10.25 8.25 C-10.23900334 5.1489408 -10.12081946 4.18587609 -8.375 1.5 C-5.25673949 -0.46942769 -3.62279473 -0.67927401 0 0 Z M-5 4 C-5 5.32 -5 6.64 -5 8 C-3.68 8 -2.36 8 -1 8 C-1 6.68 -1 5.36 -1 4 C-2.32 4 -3.64 4 -5 4 Z " fill="#3C8A4F" transform="translate(67,20)"/>
<path d="M0 0 C0.63019694 8.03501094 0.63019694 8.03501094 -2 12.0625 C-2.66 12.701875 -3.32 13.34125 -4 14 C-6.16874252 13.49396008 -7.99967627 13.00016187 -10 12 C-13.03287195 12.17684385 -16.03453014 12.5172465 -19.0546875 12.84375 C-21.69762412 12.98395884 -23.5117407 12.81739919 -26 12 C-26 10.02 -26 8.04 -26 6 C-21.71 6 -17.42 6 -13 6 C-12.34 4.68 -11.68 3.36 -11 2 C-9.16015625 1.171875 -9.16015625 1.171875 -7.0625 0.75 C-6.02802734 0.52570313 -6.02802734 0.52570313 -4.97265625 0.296875 C-3 0 -3 0 0 0 Z " fill="#1A744C" transform="translate(72,67)"/>
<path d="M0 0 C2.4375 2.1875 2.4375 2.1875 4 5 C4 7.625 4 7.625 3 10 C0.68542384 12.16027108 -0.97442875 12.99147625 -4 14 C-4.73323796 16.01508358 -4.73323796 16.01508358 -5 18 C-5.66 18 -6.32 18 -7 18 C-7 15.69 -7 13.38 -7 11 C-7.66 11 -8.32 11 -9 11 C-9.75 7.75 -9.75 7.75 -10 4 C-7.36084364 -0.11708392 -4.74569407 -0.88981764 0 0 Z M-5 4 C-5 5.32 -5 6.64 -5 8 C-3.68 8 -2.36 8 -1 8 C-1 6.68 -1 5.36 -1 4 C-2.32 4 -3.64 4 -5 4 Z " fill="#579C51" transform="translate(67,20)"/>
<path d="M0 0 C1.4540625 0.0309375 1.4540625 0.0309375 2.9375 0.0625 C1.51000019 3.85299707 -0.22486542 7.33372456 -2.1875 10.875 C-2.99574219 12.33873047 -2.99574219 12.33873047 -3.8203125 13.83203125 C-4.43519531 14.93611328 -4.43519531 14.93611328 -5.0625 16.0625 C-7.0425 16.0625 -9.0225 16.0625 -11.0625 16.0625 C-11.02125 17.17625 -10.98 18.29 -10.9375 19.4375 C-11.0625 23.0625 -11.0625 23.0625 -13.0625 25.0625 C-14.33046459 20.42150339 -14.3501652 17.95670114 -12.0078125 13.6953125 C-11.08698068 12.1808212 -10.1462311 10.67828831 -9.1875 9.1875 C-8.71441406 8.41664062 -8.24132813 7.64578125 -7.75390625 6.8515625 C-3.5648883 0.07275282 -3.5648883 0.07275282 0 0 Z " fill="#407B53" transform="translate(53.0625,44.9375)"/>
<path d="M0 0 C0.02689216 1.47906892 0.04634621 2.95827483 0.0625 4.4375 C0.07410156 5.26121094 0.08570312 6.08492188 0.09765625 6.93359375 C0 9 0 9 -1 10 C-2.68608966 10.07205511 -4.37500659 10.08386068 -6.0625 10.0625 C-6.98160156 10.05347656 -7.90070313 10.04445313 -8.84765625 10.03515625 C-9.55792969 10.02355469 -10.26820312 10.01195313 -11 10 C-11.66 8.02 -12.32 6.04 -13 4 C-8.99871622 0.46040281 -5.22959877 0 0 0 Z " fill="#19523D" transform="translate(72,67)"/>
<path d="M0 0 C2.375 2.5 2.375 2.5 4 5 C3.34 5.66 2.68 6.32 2 7 C1.01 7 0.02 7 -1 7 C-1 6.01 -1 5.02 -1 4 C-2.97536745 4.34786708 -2.97536745 4.34786708 -5 5 C-5.33 5.66 -5.66 6.32 -6 7 C-7.32 7 -8.64 7 -10 7 C-9.6875 4.625 -9.6875 4.625 -9 2 C-5.50434664 -0.33043558 -4.1134271 -0.58763244 0 0 Z " fill="#266446" transform="translate(67,20)"/>
<path d="M0 0 C3.875 1.875 3.875 1.875 5 3 C5.07226502 4.85287502 5.0838122 6.70833878 5.0625 8.5625 C5.05347656 9.57441406 5.04445313 10.58632812 5.03515625 11.62890625 C5.02355469 12.41136719 5.01195312 13.19382812 5 14 C-0.80205656 8.35475578 -0.80205656 8.35475578 -3 5 C-3 4.34 -3 3.68 -3 3 C-2.34 3 -1.68 3 -1 3 C-0.67 2.01 -0.34 1.02 0 0 Z " fill="#378353" transform="translate(27,61)"/>
<path d="M0 0 C6.27 0 12.54 0 19 0 C18.34 1.32 17.68 2.64 17 4 C14.83125748 3.49396008 13.00032373 3.00016187 11 2 C9.12137125 2.08744368 7.24544819 2.24175542 5.375 2.4375 C3.87066406 2.59025391 3.87066406 2.59025391 2.3359375 2.74609375 C1.56507812 2.82988281 0.79421875 2.91367188 0 3 C0 2.01 0 1.02 0 0 Z " fill="#4B944F" transform="translate(51,77)"/>
<path d="M0 0 C1.32 0 2.64 0 4 0 C4 0.66 4 1.32 4 2 C4.99 2 5.98 2 7 2 C8.83691257 5.78187881 9.15837626 7.94568308 8 12 C7.67 11.34 7.34 10.68 7 10 C6.01 10 5.02 10 4 10 C2.68 6.7 1.36 3.4 0 0 Z " fill="#31854F" transform="translate(19,54)"/>
<path d="M0 0 C2.64 1.32 5.28 2.64 8 4 C7.67 5.65 7.34 7.3 7 9 C2.56909529 7.79157144 0.01887244 6.48331435 -3 3 C-2.01 3 -1.02 3 0 3 C0 2.01 0 1.02 0 0 Z " fill="#479150" transform="translate(64,37)"/>
<path d="M0 0 C-0.33 1.32 -0.66 2.64 -1 4 C-4.96 4 -8.92 4 -13 4 C-13.33 3.01 -13.66 2.02 -14 1 C-13.07767578 1.01740234 -13.07767578 1.01740234 -12.13671875 1.03515625 C-10.92435547 1.04869141 -10.92435547 1.04869141 -9.6875 1.0625 C-8.88699219 1.07410156 -8.08648437 1.08570312 -7.26171875 1.09765625 C-4.67983261 0.98617585 -2.57562005 0 0 0 Z " fill="#47924F" transform="translate(71,26)"/>
<path d="M0 0 C2.97 0.495 2.97 0.495 6 1 C6 1.66 6 2.32 6 3 C4.02 3 2.04 3 0 3 C0.04125 4.11375 0.0825 5.2275 0.125 6.375 C0 10 0 10 -2 12 C-3.35384615 5.72307692 -3.35384615 5.72307692 -1.5625 2.0625 C-1.046875 1.381875 -0.53125 0.70125 0 0 Z " fill="#16553B" transform="translate(42,58)"/>
<path d="M0 0 C0.66 0 1.32 0 2 0 C2 2.97 2 5.94 2 9 C0.35 9 -1.3 9 -3 9 C-2.67 7.35 -2.34 5.7 -2 4 C-1.34 4 -0.68 4 0 4 C0 2.68 0 1.36 0 0 Z " fill="#1F7B4F" transform="translate(70,67)"/>
<path d="M0 0 C3.1875 -0.3125 3.1875 -0.3125 6 0 C5.34 1.65 4.68 3.3 4 5 C1.69 5 -0.62 5 -3 5 C-1.875 2.5 -1.875 2.5 0 0 Z " fill="#519750" transform="translate(53,40)"/>
<path d="M0 0 C1.32 0 2.64 0 4 0 C4 1.98 4 3.96 4 6 C2.02 6 0.04 6 -2 6 C-1.49396008 3.83125748 -1.00016187 2.00032373 0 0 Z " fill="#5D5C5E" transform="translate(45,53)"/>
<path d="M0 0 C1.258125 -0.04125 2.51625 -0.0825 3.8125 -0.125 C4.52019531 -0.14820312 5.22789063 -0.17140625 5.95703125 -0.1953125 C8 0 8 0 11 2 C7.37 2.33 3.74 2.66 0 3 C0 2.01 0 1.02 0 0 Z " fill="#64A552" transform="translate(51,77)"/>
<path d="M0 0 C0 0.66 0 1.32 0 2 C-0.99 2.495 -0.99 2.495 -2 3 C-2.65555119 5.52733235 -2.65555119 5.52733235 -3 8 C-3.33 8 -3.66 8 -4 8 C-4 6.35 -4 4.7 -4 3 C-4.66 3 -5.32 3 -6 3 C-6 3.66 -6 4.32 -6 5 C-6.66 5 -7.32 5 -8 5 C-5.96115496 0.48541456 -5.19128917 0 0 0 Z " fill="#237D53" transform="translate(67,68)"/>
<path d="M0 0 C0.33 1.32 0.66 2.64 1 4 C0.01 4.495 0.01 4.495 -1 5 C-1.33 5.99 -1.66 6.98 -2 8 C-2.66 8 -3.32 8 -4 8 C-4 6.35 -4 4.7 -4 3 C-3.34 3 -2.68 3 -2 3 C-2 2.34 -2 1.68 -2 1 C-1.34 0.67 -0.68 0.34 0 0 Z " fill="#1D3B2C" transform="translate(69,67)"/>
<path d="M0 0 C0.99 0.33 1.98 0.66 3 1 C3.125 6.75 3.125 6.75 2 9 C1.34 8.67 0.68 8.34 0 8 C0 5.36 0 2.72 0 0 Z " fill="#1E774C" transform="translate(53,31)"/>
<path d="M0 0 C0.66 0.33 1.32 0.66 2 1 C1.67 3.31 1.34 5.62 1 8 C0.67 7.34 0.34 6.68 0 6 C-0.99 6 -1.98 6 -3 6 C-3 5.34 -3 4.68 -3 4 C-2.34 4 -1.68 4 -1 4 C-0.67 2.68 -0.34 1.36 0 0 Z " fill="#20553A" transform="translate(26,58)"/>
<path d="M0 0 C1.98 0 3.96 0 6 0 C5.67 1.32 5.34 2.64 5 4 C3.0625 3.6875 3.0625 3.6875 1 3 C0.67 2.01 0.34 1.02 0 0 Z " fill="#19734C" transform="translate(50,45)"/>
<path d="M0 0 C1.65 0 3.3 0 5 0 C3.515 3.465 3.515 3.465 2 7 C1.67 7 1.34 7 1 7 C0.67 4.69 0.34 2.38 0 0 Z " fill="#55A053" transform="translate(42,61)"/>
<path d="M0 0 C0.99 0.33 1.98 0.66 3 1 C3 2.98 3 4.96 3 7 C2.01 7 1.02 7 0 7 C-0.38133299 5.0085944 -0.71325582 3.00720923 -1 1 C-0.67 0.67 -0.34 0.34 0 0 Z " fill="#232827" transform="translate(47,50)"/>
</svg>
